Coordinates
version=1
nRows=54
nColumns=12
inDegrees=yes

Units are S.I. units (second, meters, Newtons, ...)
Angles are in degrees

endheader
time	SC_y	SC_z	SC_x	AC_y	AC_z	AC_x	GH_y	GH_z	GH_yy	EL_x	PS_y
       0.0              -13.94          2.684           27.7           53.0         -9.388        -0.8295          -6.85         -5.244          58.15          88.82          88.23
   0.04689              -13.95           2.69          27.71           53.0         -9.386        -0.8323         -6.854         -5.246          58.16          88.81          88.23
   0.09379              -13.95          2.695          27.71           53.0         -9.384        -0.8352         -6.859         -5.248          58.18          88.81          88.23
    0.1407              -13.95          2.701          27.72           53.0         -9.382        -0.8383         -6.863          -5.25          58.19           88.8          88.23
    0.1876              -13.96          2.707          27.73           53.0          -9.38        -0.8417         -6.868         -5.252           58.2           88.8          88.23
    0.2345              -13.96          2.714          27.74           53.0         -9.378        -0.8452         -6.873         -5.255          58.21          88.79          88.23
    0.2814              -13.97          2.721          27.75           53.0         -9.375         -0.849         -6.879         -5.257          58.23          88.78          88.23
    0.3282              -13.97          2.729          27.76           53.0         -9.373        -0.8531         -6.885          -5.26          58.24          88.78          88.23
    0.3751              -13.98          2.737          27.77           53.0          -9.37        -0.8574         -6.891         -5.263          58.26          88.77          88.23
     0.422              -13.98          2.745          27.78           53.0         -9.367        -0.8621         -6.898         -5.266          58.28          88.76          88.24
    0.4689              -13.99          2.755          27.79          52.99         -9.364        -0.8671         -6.905         -5.269           58.3          88.75          88.24
    0.5158              -13.99          2.765          27.81          52.99          -9.36        -0.8724         -6.913         -5.273          58.32          88.74          88.24
    0.5627               -14.0          2.776          27.82          52.99         -9.357        -0.8782         -6.921         -5.276          58.34          88.73          88.24
    0.6096              -14.01          2.788          27.84          52.99         -9.353        -0.8845          -6.93          -5.28          58.36          88.72          88.24
    0.6565              -14.01            2.8          27.85          52.99         -9.348        -0.8913          -6.94         -5.285          58.39          88.71          88.24
    0.7034              -14.02          2.814          27.87          52.99         -9.344        -0.8987         -6.951          -5.29          58.42           88.7          88.24
    0.7503              -14.03          2.829          27.89          52.99         -9.339        -0.9066         -6.962         -5.295          58.45          88.69          88.24
    0.7972              -14.04          2.846          27.91          52.99         -9.333        -0.9154         -6.975         -5.301          58.48          88.67          88.24
    0.8441              -14.05          2.863          27.94          52.98         -9.327        -0.9249         -6.989         -5.307          58.51          88.66          88.25
     0.891              -14.07          2.883          27.96          52.98          -9.32        -0.9353         -7.004         -5.314          58.55          88.64          88.25
    0.9379              -14.08          2.904          27.99          52.98         -9.313        -0.9467         -7.021         -5.321           58.6          88.62          88.25
    0.9847              -14.09          2.928          28.02          52.98         -9.305        -0.9593         -7.039          -5.33          58.64           88.6          88.25
     1.032              -14.11          2.954          28.06          52.97         -9.296        -0.9732         -7.059         -5.339           58.7          88.57          88.25
     1.079              -14.13          2.983           28.1          52.97         -9.287        -0.9886         -7.081         -5.349          58.76          88.55          88.26
     1.125              -14.15          3.015          28.14          52.97         -9.276         -1.006         -7.106          -5.36          58.82          88.52          88.26
     1.172              -14.17          3.051          28.19          52.96         -9.264         -1.025         -7.134         -5.372          58.89          88.49          88.26
     1.219              -14.19          3.091          28.24          52.96          -9.25         -1.046         -7.165         -5.386          58.97          88.45          88.27
     1.266              -14.22          3.136           28.3          52.96         -9.235          -1.07           -7.2         -5.402          59.06          88.41          88.27
     1.313              -14.25          3.187          28.37          52.95         -9.217         -1.097         -7.239          -5.42          59.17          88.36          88.27
      1.36              -14.29          3.245          28.45          52.94         -9.198         -1.128         -7.284          -5.44          59.28          88.31          88.28
     1.407              -14.33          3.312          28.53          52.94         -9.175         -1.164         -7.335         -5.463          59.42          88.25          88.29
     1.454              -14.37          3.387          28.64          52.93          -9.15         -1.204         -7.394          -5.49          59.57          88.19          88.29
     1.501              -14.43          3.475          28.75          52.92          -9.12         -1.251         -7.462         -5.521          59.75          88.11           88.3
     1.547              -14.49          3.577          28.89          52.91         -9.085         -1.305         -7.541         -5.556          59.95          88.02          88.31
     1.594              -14.56          3.696          29.05           52.9         -9.045         -1.369         -7.633         -5.598          60.19          87.91          88.32
     1.641              -14.65          3.837          29.23          52.88         -8.997         -1.443         -7.742         -5.647          60.47          87.78          88.33
     1.688              -14.75          4.004          29.45          52.86         -8.941         -1.532         -7.871         -5.705          60.81          87.63          88.35
     1.735              -14.87          4.204          29.72          52.84         -8.873         -1.639         -8.026         -5.775          61.21          87.45          88.36
     1.782              -15.02          4.446          30.04          52.82         -8.791         -1.768         -8.213          -5.86           61.7          87.24          88.39
     1.829               -15.2          4.742          30.44          52.79         -8.691         -1.926         -8.442         -5.963          62.29          86.97          88.41
     1.876              -15.43          5.107          30.92          52.75         -8.567          -2.12         -8.724          -6.09          63.03          86.64          88.45
     1.923              -15.71          5.562          31.53           52.7         -8.413         -2.363         -9.076         -6.249          63.95          86.24          88.49
     1.969              -16.06          6.135          32.29          52.64         -8.218         -2.668          -9.52          -6.45           65.1          85.72          88.54
     2.016               -16.5          6.864          33.26          52.57         -7.971         -3.057         -10.08         -6.704          66.57          85.07           88.6
     2.063              -17.07          7.798           34.5          52.47         -7.655         -3.554         -10.81          -7.03          68.44          84.23          88.68
      2.11              -17.81          8.995          36.09          52.34          -7.25         -4.192         -11.73         -7.448          70.85          83.16          88.79
     2.157              -18.74          10.52          38.13          52.18         -6.731         -5.007         -12.92         -7.982          73.93          81.79          88.93
     2.204              -19.92          12.45          40.68          51.98          -6.08         -6.031          -14.4         -8.654           77.8          80.06           89.1
     2.251              -21.36          14.79           43.8          51.74         -5.285          -7.28         -16.22         -9.473          82.52          77.96          89.31
     2.298              -23.02          17.51          47.41          51.45         -4.365         -8.727         -18.32         -10.42          87.98          75.53          89.55
     2.345              -24.82          20.45          51.32          51.15         -3.368         -10.29         -20.59         -11.45           93.9          72.89          89.81
     2.392              -26.62          23.39          55.24          50.84         -2.372         -11.86         -22.87         -12.48          99.82          70.25          90.07
     2.438              -28.29          26.11          58.85          50.56         -1.451         -13.31         -24.97         -13.42          105.3          67.82          90.31
     2.485              -29.72          28.45          61.97          50.31         -0.657         -14.56         -26.78         -14.24          110.0          65.72          90.52
